<svg id="search" xmlns="http://www.w3.org/2000/svg" width="18.002" height="18.001" viewBox="0 0 18.002 18.001">
  <path id="Path_2920" data-name="Path 2920" d="M23.167,23.165a1.125,1.125,0,0,1,1.592,0L29.09,27.5A1.125,1.125,0,0,1,27.5,29.089l-4.331-4.331a1.125,1.125,0,0,1,0-1.592Z" transform="translate(-11.418 -11.416)" fill-rule="evenodd"/>
  <path id="Path_2921" data-name="Path 2921" d="M7.313,13.5A6.188,6.188,0,1,0,1.125,7.313,6.188,6.188,0,0,0,7.313,13.5Zm7.313-6.188A7.313,7.313,0,1,1,7.313,0a7.313,7.313,0,0,1,7.313,7.313Z" fill-rule="evenodd"/>
</svg>
